# xmcd CD database file
#
# Track frame offsets:
#	150
#	14670
#	31845
#	49972
#	66392
#	78037
#	92827
#	108732
#	124672
#	137737
#
# Disc length: 2034 seconds
#
# Revision: 3
# Processed by: cddbd v1.4PL0 Copyright (c) Steve Scherf et al.
# Submitted via: CDex 1.50Beta7
#
DISCID=8707f00a
DTITLE=Johnny Shines - Masters of Modern Blues
DYEAR=1966
DGENRE=Blues
TTITLE0=Rollin' and Tumblin'
TTITLE1=Trouble Is All I See
TTITLE2=Mr. Tom Green's Farm
TTITLE3=My Black Mare
TTITLE4=What Kind Of Little Girl Are You¿
TTITLE5=So Cold In Vietnam
TTITLE6=Sweet Home Chicago
TTITLE7=Walkin' Blues
TTITLE8=Black Panther
TTITLE9=Two Trains Runnin'
EXTD=TCD 5002\n\nAll tracks previously issued on Testament 2212.\n\nJohnny Shines:  vocal, guitar\nBig Walter Horton:  harmonica\nOtis Spann:  piano\nLee Jackson:  bass\nFred Below: drums\n\nRecorded at One-derful Studios, Chicago, Ill., June, 1966.\n\nS
EXTD=ubmitted 6/12/97\n[Jmccoy@efn.org]\n YEAR: 1966
EXTT0=
EXTT1=
EXTT2=
EXTT3=
EXTT4=
EXTT5=
EXTT6=
EXTT7=
EXTT8=
EXTT9=
PLAYORDER=
